<svg xmlns="http://www.w3.org/2000/svg" xmlns:xlink="http://www.w3.org/1999/xlink" width="2000" zoomAndPan="magnify" viewBox="0 0 1500 1499.999933" height="2000" preserveAspectRatio="xMidYMid meet" version="1.0"><defs><filter x="0%" y="0%" width="100%" height="100%" id="04872f3b68"><feColorMatrix values="0 0 0 0 1 0 0 0 0 1 0 0 0 0 1 0 0 0 1 0" color-interpolation-filters="sRGB"/></filter><mask id="fbdafc3c69"><g filter="url(#04872f3b68)"><rect x="-150" width="1800" fill="#000000" y="-149.999993" height="1799.99992" fill-opacity="0.7"/></g></mask><clipPath id="cf669bc25e"><path d="M 2.3125 597 L 134 597 L 134 675 L 2.3125 675 Z M 2.3125 597 " clip-rule="nonzero"/></clipPath><clipPath id="f9fab967a5"><path d="M 2.3125 825 L 134 825 L 134 903 L 2.3125 903 Z M 2.3125 825 " clip-rule="nonzero"/></clipPath><clipPath id="b206491056"><path d="M 2.3125 1047 L 134 1047 L 134 1125 L 2.3125 1125 Z M 2.3125 1047 " clip-rule="nonzero"/></clipPath><clipPath id="a291748658"><path d="M 2.3125 375 L 134 375 L 134 453 L 2.3125 453 Z M 2.3125 375 " clip-rule="nonzero"/></clipPath><clipPath id="ae710873e5"><rect x="0" width="1304" y="0" height="1500"/></clipPath></defs><g mask="url(#fbdafc3c69)"><g transform="matrix(1, 0, 0, 1, 98, 0.000000000000112861)"><g clip-path="url(#ae710873e5)"><path fill="#d9d9d9" d="M 524.5 676.199219 L 524.5 823.5 L 652 897.300781 L 779.5 823.5 L 779.5 676.199219 L 652 602.699219 Z M 519.699219 825 L 519.699219 673.800781 C 563.800781 648.300781 607.898438 623.101562 652 597.601562 C 696.101562 623.101562 740.199219 648.601562 784.300781 673.800781 L 784.300781 826.5 C 740.199219 852 696.101562 877.5 652 902.699219 C 607.898438 877.199219 563.800781 851.699219 519.699219 826.5 Z M 519.699219 825 " fill-opacity="1" fill-rule="nonzero"/><path fill="#d9d9d9" d="M 523.300781 672.898438 L 653.199219 747.898438 L 650.800781 752.101562 L 520.898438 677.101562 Z M 523.300781 672.898438 " fill-opacity="1" fill-rule="nonzero"/><path fill="#d9d9d9" d="M 649.601562 900 L 649.601562 748.800781 L 780.699219 672.898438 L 783.101562 677.101562 L 654.398438 751.199219 L 654.398438 900 Z M 649.601562 900 " fill-opacity="1" fill-rule="nonzero"/><path fill="#d9d9d9" d="M 649.601562 600 L 649.601562 448.800781 C 693.699219 423.300781 737.800781 398.101562 781.898438 372.601562 C 826 398.101562 870.101562 423.601562 914.199219 448.800781 L 914.199219 601.5 L 783.101562 677.101562 L 780.699219 673.199219 L 909.398438 598.800781 L 909.398438 451.5 L 781.898438 377.699219 L 654.398438 451.5 L 654.398438 600 Z M 649.601562 600 " fill-opacity="1" fill-rule="nonzero"/><path fill="#d9d9d9" d="M 913 597.898438 L 1044.101562 673.800781 L 1044.101562 826.199219 L 913 902.101562 L 910.601562 897.898438 L 1039.300781 823.800781 L 1039.300781 676.199219 L 910.601562 602.101562 Z M 913 597.898438 " fill-opacity="1" fill-rule="nonzero"/><path fill="#d9d9d9" d="M 783.101562 822.898438 L 914.199219 898.5 L 914.199219 1051.199219 C 870.101562 1076.699219 826 1102.199219 781.898438 1127.398438 C 737.800781 1101.898438 693.699219 1076.398438 649.601562 1051.199219 L 649.601562 900 L 654.101562 900 L 654.101562 1048.800781 L 781.601562 1122.601562 L 909.101562 1048.800781 L 909.101562 901.5 L 780.398438 827.101562 Z M 783.101562 822.898438 " fill-opacity="1" fill-rule="nonzero"/><path fill="#d9d9d9" d="M 650.800781 452.101562 L 522.101562 377.699219 L 394.601562 451.5 L 394.601562 598.800781 L 523.300781 673.199219 L 520.898438 677.101562 L 389.800781 601.5 L 389.800781 448.800781 C 433.898438 423.300781 478 398.101562 522.101562 372.601562 L 653.199219 448.199219 Z M 650.800781 452.101562 " fill-opacity="1" fill-rule="nonzero"/><path fill="#d9d9d9" d="M 393.398438 602.101562 L 264.699219 676.199219 L 264.699219 823.800781 L 393.398438 897.898438 L 391 902.101562 L 259.898438 826.199219 L 259.898438 673.800781 L 391 597.898438 Z M 393.398438 602.101562 " fill-opacity="1" fill-rule="nonzero"/><path fill="#d9d9d9" d="M 523.300781 827.101562 L 394.601562 901.5 L 394.601562 1048.800781 L 522.101562 1122.601562 L 650.800781 1048.199219 L 653.199219 1052.101562 L 522.101562 1127.699219 C 478 1102.199219 433.898438 1076.699219 389.800781 1051.5 L 389.800781 898.800781 L 520.898438 823.199219 Z M 523.300781 827.101562 " fill-opacity="1" fill-rule="nonzero"/><path fill="#d9d9d9" d="M 391 597.898438 L 650.800781 447.898438 L 653.199219 452.101562 L 393.398438 602.101562 Z M 391 597.898438 " fill-opacity="1" fill-rule="nonzero"/><path fill="#d9d9d9" d="M 650.800781 602.101562 L 391 452.101562 L 393.398438 447.898438 L 653.199219 597.898438 Z M 650.800781 602.101562 " fill-opacity="1" fill-rule="nonzero"/><path fill="#d9d9d9" d="M 519.699219 375 L 524.5 375 L 524.5 675 L 519.699219 675 Z M 519.699219 375 " fill-opacity="1" fill-rule="nonzero"/><path fill="#d9d9d9" d="M 650.800781 597.898438 L 910.601562 447.898438 L 913 452.101562 L 653.199219 602.101562 Z M 650.800781 597.898438 " fill-opacity="1" fill-rule="nonzero"/><path fill="#d9d9d9" d="M 910.601562 602.101562 L 650.800781 452.101562 L 653.199219 447.898438 L 913 597.898438 Z M 910.601562 602.101562 " fill-opacity="1" fill-rule="nonzero"/><path fill="#d9d9d9" d="M 779.5 375 L 784.300781 375 L 784.300781 675 L 779.5 675 Z M 779.5 375 " fill-opacity="1" fill-rule="nonzero"/><path fill="#d9d9d9" d="M 780.699219 822.898438 L 1040.5 672.898438 L 1042.898438 677.101562 L 783.101562 827.101562 Z M 780.699219 822.898438 " fill-opacity="1" fill-rule="nonzero"/><path fill="#d9d9d9" d="M 1040.5 827.101562 L 780.699219 677.101562 L 783.101562 672.898438 L 1042.898438 822.898438 Z M 1040.5 827.101562 " fill-opacity="1" fill-rule="nonzero"/><path fill="#d9d9d9" d="M 909.398438 600 L 914.199219 600 L 914.199219 900 L 909.398438 900 Z M 909.398438 600 " fill-opacity="1" fill-rule="nonzero"/><path fill="#d9d9d9" d="M 650.800781 1047.898438 L 910.601562 897.898438 L 913 902.101562 L 653.199219 1052.101562 Z M 650.800781 1047.898438 " fill-opacity="1" fill-rule="nonzero"/><path fill="#d9d9d9" d="M 910.601562 1052.101562 L 650.800781 902.101562 L 653.199219 897.898438 L 913 1047.898438 Z M 910.601562 1052.101562 " fill-opacity="1" fill-rule="nonzero"/><path fill="#d9d9d9" d="M 779.5 825 L 784.300781 825 L 784.300781 1125 L 779.5 1125 Z M 779.5 825 " fill-opacity="1" fill-rule="nonzero"/><path fill="#d9d9d9" d="M 391 1047.898438 L 650.800781 897.898438 L 653.199219 902.101562 L 393.398438 1052.101562 Z M 391 1047.898438 " fill-opacity="1" fill-rule="nonzero"/><path fill="#d9d9d9" d="M 650.800781 1052.101562 L 391 902.101562 L 393.398438 897.898438 L 653.199219 1047.898438 Z M 650.800781 1052.101562 " fill-opacity="1" fill-rule="nonzero"/><path fill="#d9d9d9" d="M 519.699219 825 L 524.5 825 L 524.5 1125 L 519.699219 1125 Z M 519.699219 825 " fill-opacity="1" fill-rule="nonzero"/><path fill="#d9d9d9" d="M 261.101562 822.898438 L 520.898438 672.898438 L 523.300781 677.101562 L 263.5 827.101562 Z M 261.101562 822.898438 " fill-opacity="1" fill-rule="nonzero"/><path fill="#d9d9d9" d="M 520.898438 827.101562 L 261.101562 677.101562 L 263.5 672.898438 L 523.300781 822.898438 Z M 520.898438 827.101562 " fill-opacity="1" fill-rule="nonzero"/><path fill="#d9d9d9" d="M 389.800781 600 L 394.601562 600 L 394.601562 900 L 389.800781 900 Z M 389.800781 600 " fill-opacity="1" fill-rule="nonzero"/><path fill="#d9d9d9" d="M 779.5 375 L 779.5 226.199219 L 652 152.699219 L 524.5 226.5 L 524.5 375 L 520 375 L 520 223.800781 C 564.101562 198.300781 608.199219 173.101562 652.300781 147.601562 C 696.398438 173.101562 740.5 198.601562 784.601562 223.800781 L 784.601562 375 Z M 779.5 375 " fill-opacity="1" fill-rule="nonzero"/><path fill="#d9d9d9" d="M 523.300781 222.898438 L 653.199219 297.898438 L 650.800781 302.101562 L 520.898438 227.101562 Z M 523.300781 222.898438 " fill-opacity="1" fill-rule="nonzero"/><path fill="#d9d9d9" d="M 649.601562 450 L 649.601562 298.800781 L 780.699219 222.898438 L 783.101562 227.101562 L 654.398438 301.199219 L 654.398438 450 Z M 649.601562 450 " fill-opacity="1" fill-rule="nonzero"/><path fill="#d9d9d9" d="M 1040.5 672.898438 L 1169.199219 598.5 L 1169.199219 451.199219 L 1041.699219 377.398438 L 913 452.101562 L 910.601562 448.199219 L 1041.699219 372.601562 C 1085.800781 398.101562 1129.898438 423.601562 1174 448.800781 L 1174 601.5 L 1042.898438 677.101562 Z M 1040.5 672.898438 " fill-opacity="1" fill-rule="nonzero"/><path fill="#d9d9d9" d="M 913 447.898438 L 1042.898438 522.898438 L 1040.5 527.101562 L 910.601562 452.101562 Z M 913 447.898438 " fill-opacity="1" fill-rule="nonzero"/><path fill="#d9d9d9" d="M 1039.300781 675 L 1039.300781 523.800781 L 1170.398438 447.898438 L 1172.800781 452.101562 L 1044.101562 526.199219 L 1044.101562 675 Z M 1039.300781 675 " fill-opacity="1" fill-rule="nonzero"/><path fill="#d9d9d9" d="M 913 1047.898438 L 1041.699219 1122.300781 L 1169.199219 1048.5 L 1169.199219 901.199219 L 1040.5 826.800781 L 1042.898438 822.898438 L 1174 898.5 L 1174 1051.199219 C 1129.898438 1076.699219 1085.800781 1102.199219 1041.699219 1127.398438 L 910.601562 1051.800781 Z M 913 1047.898438 " fill-opacity="1" fill-rule="nonzero"/><path fill="#d9d9d9" d="M 913 897.898438 L 1042.898438 972.898438 L 1040.5 977.101562 L 910.601562 902.101562 Z M 913 897.898438 " fill-opacity="1" fill-rule="nonzero"/><path fill="#d9d9d9" d="M 1039.300781 1125 L 1039.300781 973.800781 L 1170.398438 897.898438 L 1172.800781 902.101562 L 1044.101562 976.199219 L 1044.101562 1125 Z M 1039.300781 1125 " fill-opacity="1" fill-rule="nonzero"/><path fill="#d9d9d9" d="M 393.398438 1052.101562 L 262.300781 1127.699219 C 218.199219 1102.199219 174.101562 1076.699219 130 1051.5 L 130 898.800781 L 261.101562 823.199219 L 263.5 827.101562 L 134.800781 901.5 L 134.800781 1048.800781 L 262.300781 1122.601562 L 391 1048.199219 Z M 393.398438 1052.101562 " fill-opacity="1" fill-rule="nonzero"/><path fill="#d9d9d9" d="M 393.398438 902.101562 L 263.5 977.101562 L 261.101562 972.898438 L 391 897.898438 Z M 393.398438 902.101562 " fill-opacity="1" fill-rule="nonzero"/><path fill="#d9d9d9" d="M 259.898438 1125 L 259.898438 976.199219 L 131.199219 902.101562 L 133.601562 897.898438 L 264.699219 973.800781 L 264.699219 1125 Z M 259.898438 1125 " fill-opacity="1" fill-rule="nonzero"/><path fill="#d9d9d9" d="M 261.101562 677.101562 L 130 601.199219 L 130 448.5 C 174.101562 423 218.199219 397.5 262.300781 372.300781 L 393.398438 447.898438 L 391 451.800781 L 262.300781 377.398438 L 134.800781 451.199219 L 134.800781 598.5 L 263.5 672.898438 Z M 261.101562 677.101562 " fill-opacity="1" fill-rule="nonzero"/><path fill="#d9d9d9" d="M 393.398438 452.101562 L 263.5 527.101562 L 261.101562 522.898438 L 391 447.898438 Z M 393.398438 452.101562 " fill-opacity="1" fill-rule="nonzero"/><path fill="#d9d9d9" d="M 259.898438 675 L 259.898438 526.199219 L 131.199219 452.101562 L 133.601562 447.898438 L 264.699219 523.800781 L 264.699219 675 Z M 259.898438 675 " fill-opacity="1" fill-rule="nonzero"/><path fill="#d9d9d9" d="M 524.5 1125 L 524.5 1273.800781 L 652 1347.601562 L 779.5 1273.800781 L 779.5 1125 L 784 1125 L 784 1276.199219 C 739.898438 1301.699219 695.800781 1327.199219 651.699219 1352.398438 C 607.601562 1326.898438 563.5 1301.398438 519.398438 1276.199219 L 519.398438 1125 Z M 524.5 1125 " fill-opacity="1" fill-rule="nonzero"/><path fill="#d9d9d9" d="M 523.300781 1122.898438 L 653.199219 1197.898438 L 650.800781 1202.101562 L 520.898438 1127.101562 Z M 523.300781 1122.898438 " fill-opacity="1" fill-rule="nonzero"/><path fill="#d9d9d9" d="M 649.601562 1350 L 649.601562 1198.800781 L 780.699219 1122.898438 L 783.101562 1127.101562 L 654.398438 1201.199219 L 654.398438 1350 Z M 649.601562 1350 " fill-opacity="1" fill-rule="nonzero"/><g clip-path="url(#cf669bc25e)"><path fill="#d9d9d9" d="M 131.199219 597.898438 L 133.601562 602.101562 L 2.5 675 Z M 131.199219 597.898438 " fill-opacity="1" fill-rule="nonzero"/></g><g clip-path="url(#f9fab967a5)"><path fill="#d9d9d9" d="M 133.601562 897.898438 L 131.199219 902.101562 L 2.5 825 Z M 133.601562 897.898438 " fill-opacity="1" fill-rule="nonzero"/></g><g clip-path="url(#b206491056)"><path fill="#d9d9d9" d="M 131.199219 1047.898438 L 133.601562 1052.101562 L 2.5 1125 Z M 131.199219 1047.898438 " fill-opacity="1" fill-rule="nonzero"/></g><path fill="#d9d9d9" d="M 520.898438 1272.898438 L 523.300781 1277.101562 L 392.199219 1350 Z M 520.898438 1272.898438 " fill-opacity="1" fill-rule="nonzero"/><g clip-path="url(#a291748658)"><path fill="#d9d9d9" d="M 133.601562 447.898438 L 131.199219 452.101562 L 2.5 375 Z M 133.601562 447.898438 " fill-opacity="1" fill-rule="nonzero"/></g><path fill="#d9d9d9" d="M 523.300781 222.898438 L 520.898438 227.101562 L 392.199219 150 Z M 523.300781 222.898438 " fill-opacity="1" fill-rule="nonzero"/><path fill="#d9d9d9" d="M 911.800781 150 L 783.101562 227.101562 L 780.699219 222.898438 Z M 911.800781 150 " fill-opacity="1" fill-rule="nonzero"/><path fill="#d9d9d9" d="M 1301.5 375 L 1172.800781 452.101562 L 1170.398438 447.898438 Z M 1301.5 375 " fill-opacity="1" fill-rule="nonzero"/><path fill="#d9d9d9" d="M 780.699219 1277.101562 L 783.101562 1272.898438 L 911.800781 1350 Z M 780.699219 1277.101562 " fill-opacity="1" fill-rule="nonzero"/><path fill="#d9d9d9" d="M 1170.398438 1052.101562 L 1172.800781 1047.898438 L 1301.5 1125 Z M 1170.398438 1052.101562 " fill-opacity="1" fill-rule="nonzero"/><path fill="#d9d9d9" d="M 264.699219 375 L 259.898438 375 L 262.300781 225 Z M 264.699219 375 " fill-opacity="1" fill-rule="nonzero"/><path fill="#d9d9d9" d="M 654.398438 150 L 649.601562 150 L 652 0 Z M 654.398438 150 " fill-opacity="1" fill-rule="nonzero"/><path fill="#d9d9d9" d="M 1041.699219 225 L 1044.101562 375 L 1039.300781 375 Z M 1041.699219 225 " fill-opacity="1" fill-rule="nonzero"/><path fill="#d9d9d9" d="M 264.699219 1125 L 262.300781 1275 L 259.898438 1125 Z M 264.699219 1125 " fill-opacity="1" fill-rule="nonzero"/><path fill="#d9d9d9" d="M 1044.101562 1125 L 1041.699219 1275 L 1039.300781 1125 Z M 1044.101562 1125 " fill-opacity="1" fill-rule="nonzero"/><path fill="#d9d9d9" d="M 1301.5 675 L 1170.398438 602.101562 L 1172.800781 597.898438 Z M 1301.5 675 " fill-opacity="1" fill-rule="nonzero"/><path fill="#d9d9d9" d="M 1172.800781 902.101562 L 1170.398438 897.898438 L 1301.5 825 Z M 1172.800781 902.101562 " fill-opacity="1" fill-rule="nonzero"/><path fill="#d9d9d9" d="M 654.398438 1350 L 652 1500 L 649.601562 1350 Z M 654.398438 1350 " fill-opacity="1" fill-rule="nonzero"/></g></g></g></svg>