<svg xmlns="http://www.w3.org/2000/svg" xmlns:xlink="http://www.w3.org/1999/xlink" width="2000" zoomAndPan="magnify" viewBox="0 0 1500 1499.999933" height="2000" preserveAspectRatio="xMidYMid meet" version="1.0"><defs><g/><clipPath id="2e98559a49"><rect x="0" width="1200" y="0" height="264"/></clipPath></defs><g transform="matrix(1, 0, 0, 1, 150, 617)"><g clip-path="url(#2e98559a49)"><g fill="#09090b" fill-opacity="1"><g transform="translate(0.00002043, 205.162306)"><g><path d="M 54.015625 2.890625 C 40.941406 2.890625 30.382812 -0.0703125 22.34375 -6 C 14.300781 -11.9375 9.414062 -20.316406 7.6875 -31.140625 L 34.40625 -35.1875 C 35.5 -30.3125 37.921875 -26.492188 41.671875 -23.734375 C 45.421875 -20.984375 50.175781 -19.609375 55.9375 -19.609375 C 60.6875 -19.609375 64.34375 -20.519531 66.90625 -22.34375 C 69.46875 -24.175781 70.75 -26.722656 70.75 -29.984375 C 70.75 -32.035156 70.234375 -33.6875 69.203125 -34.9375 C 68.179688 -36.1875 65.890625 -37.421875 62.328125 -38.640625 C 58.773438 -39.859375 53.25 -41.460938 45.75 -43.453125 C 37.289062 -45.628906 30.53125 -48.0625 25.46875 -50.75 C 20.40625 -53.445312 16.753906 -56.664062 14.515625 -60.40625 C 12.273438 -64.15625 11.15625 -68.691406 11.15625 -74.015625 C 11.15625 -80.679688 12.851562 -86.460938 16.25 -91.359375 C 19.644531 -96.265625 24.429688 -100.046875 30.609375 -102.703125 C 36.796875 -105.367188 44.085938 -106.703125 52.484375 -106.703125 C 60.617188 -106.703125 67.828125 -105.453125 74.109375 -102.953125 C 80.390625 -100.453125 85.46875 -96.894531 89.34375 -92.28125 C 93.21875 -87.664062 95.609375 -82.21875 96.515625 -75.9375 L 69.78125 -71.125 C 69.332031 -74.976562 67.664062 -78.023438 64.78125 -80.265625 C 61.90625 -82.503906 58 -83.816406 53.0625 -84.203125 C 48.257812 -84.523438 44.398438 -83.882812 41.484375 -82.28125 C 38.566406 -80.675781 37.109375 -78.367188 37.109375 -75.359375 C 37.109375 -73.566406 37.734375 -72.0625 38.984375 -70.84375 C 40.234375 -69.625 42.828125 -68.375 46.765625 -67.09375 C 50.703125 -65.8125 56.707031 -64.144531 64.78125 -62.09375 C 72.664062 -60.039062 78.992188 -57.648438 83.765625 -54.921875 C 88.546875 -52.203125 92.023438 -48.9375 94.203125 -45.125 C 96.378906 -41.3125 97.46875 -36.71875 97.46875 -31.34375 C 97.46875 -20.695312 93.625 -12.328125 85.9375 -6.234375 C 78.25 -0.148438 67.609375 2.890625 54.015625 2.890625 Z M 54.015625 2.890625 "/></g></g></g><g fill="#09090b" fill-opacity="1"><g transform="translate(105.154357, 205.162306)"><g><path d="M 61.71875 2.890625 C 51.070312 2.890625 41.695312 0.597656 33.59375 -3.984375 C 25.488281 -8.566406 19.144531 -14.878906 14.5625 -22.921875 C 9.976562 -30.960938 7.6875 -40.175781 7.6875 -50.5625 C 7.6875 -61.90625 9.925781 -71.773438 14.40625 -80.171875 C 18.894531 -88.566406 25.082031 -95.085938 32.96875 -99.734375 C 40.851562 -104.378906 49.921875 -106.703125 60.171875 -106.703125 C 71.066406 -106.703125 80.328125 -104.132812 87.953125 -99 C 95.578125 -93.875 101.210938 -86.664062 104.859375 -77.375 C 108.515625 -68.082031 109.800781 -57.160156 108.71875 -44.609375 L 82.859375 -44.609375 L 82.859375 -54.21875 C 82.859375 -64.789062 81.175781 -72.398438 77.8125 -77.046875 C 74.445312 -81.691406 68.953125 -84.015625 61.328125 -84.015625 C 52.421875 -84.015625 45.867188 -81.304688 41.671875 -75.890625 C 37.472656 -70.472656 35.375 -62.476562 35.375 -51.90625 C 35.375 -42.226562 37.472656 -34.742188 41.671875 -29.453125 C 45.867188 -24.171875 52.035156 -21.53125 60.171875 -21.53125 C 65.296875 -21.53125 69.6875 -22.648438 73.34375 -24.890625 C 77 -27.140625 79.785156 -30.378906 81.703125 -34.609375 L 107.859375 -27.109375 C 103.941406 -17.617188 97.769531 -10.242188 89.34375 -4.984375 C 80.914062 0.265625 71.707031 2.890625 61.71875 2.890625 Z M 27.296875 -44.609375 L 27.296875 -64.015625 L 96.125 -64.015625 L 96.125 -44.609375 Z M 27.296875 -44.609375 "/></g></g></g><g fill="#09090b" fill-opacity="1"><g transform="translate(222.035235, 205.162306)"><g><path d="M 84.203125 0 L 84.203125 -49.03125 C 84.203125 -51.394531 84.070312 -54.421875 83.8125 -58.109375 C 83.5625 -61.796875 82.765625 -65.492188 81.421875 -69.203125 C 80.078125 -72.921875 77.878906 -76.03125 74.828125 -78.53125 C 71.785156 -81.03125 67.476562 -82.28125 61.90625 -82.28125 C 59.664062 -82.28125 57.257812 -81.925781 54.6875 -81.21875 C 52.125 -80.519531 49.722656 -79.160156 47.484375 -77.140625 C 45.242188 -75.117188 43.398438 -72.15625 41.953125 -68.25 C 40.515625 -64.34375 39.796875 -59.148438 39.796875 -52.671875 L 24.796875 -59.796875 C 24.796875 -67.992188 26.460938 -75.679688 29.796875 -82.859375 C 33.128906 -90.035156 38.144531 -95.832031 44.84375 -100.25 C 51.539062 -104.675781 59.984375 -106.890625 70.171875 -106.890625 C 78.304688 -106.890625 84.9375 -105.507812 90.0625 -102.75 C 95.195312 -100 99.1875 -96.507812 102.03125 -92.28125 C 104.882812 -88.050781 106.921875 -83.644531 108.140625 -79.0625 C 109.359375 -74.476562 110.09375 -70.296875 110.34375 -66.515625 C 110.601562 -62.734375 110.734375 -59.976562 110.734375 -58.25 L 110.734375 0 Z M 13.265625 0 L 13.265625 -103.8125 L 36.53125 -103.8125 L 36.53125 -69.40625 L 39.796875 -69.40625 L 39.796875 0 Z M 13.265625 0 "/></g></g></g><g fill="#09090b" fill-opacity="1"><g transform="translate(344.298796, 205.162306)"><g><path d="M 55.5625 2.890625 C 46.007812 2.890625 37.644531 0.488281 30.46875 -4.3125 C 23.289062 -9.125 17.695312 -15.660156 13.6875 -23.921875 C 9.6875 -32.191406 7.6875 -41.519531 7.6875 -51.90625 C 7.6875 -62.476562 9.71875 -71.878906 13.78125 -80.109375 C 17.851562 -88.347656 23.570312 -94.835938 30.9375 -99.578125 C 38.3125 -104.328125 46.96875 -106.703125 56.90625 -106.703125 C 66.769531 -106.703125 75.066406 -104.296875 81.796875 -99.484375 C 88.523438 -94.679688 93.617188 -88.144531 97.078125 -79.875 C 100.546875 -71.613281 102.28125 -62.289062 102.28125 -51.90625 C 102.28125 -41.519531 100.53125 -32.191406 97.03125 -23.921875 C 93.539062 -15.660156 88.332031 -9.125 81.40625 -4.3125 C 74.488281 0.488281 65.875 2.890625 55.5625 2.890625 Z M 59.796875 -20.375 C 65.617188 -20.375 70.273438 -21.6875 73.765625 -24.3125 C 77.265625 -26.945312 79.78125 -30.632812 81.3125 -35.375 C 82.851562 -40.113281 83.625 -45.625 83.625 -51.90625 C 83.625 -58.1875 82.851562 -63.695312 81.3125 -68.4375 C 79.78125 -73.175781 77.332031 -76.859375 73.96875 -79.484375 C 70.601562 -82.117188 66.195312 -83.4375 60.75 -83.4375 C 54.914062 -83.4375 50.125 -82.007812 46.375 -79.15625 C 42.625 -76.300781 39.851562 -72.488281 38.0625 -67.71875 C 36.269531 -62.945312 35.375 -57.675781 35.375 -51.90625 C 35.375 -46.070312 36.238281 -40.769531 37.96875 -36 C 39.695312 -31.226562 42.351562 -27.429688 45.9375 -24.609375 C 49.53125 -21.785156 54.148438 -20.375 59.796875 -20.375 Z M 83.625 0 L 83.625 -71.125 L 80.359375 -71.125 L 80.359375 -138.421875 L 106.703125 -138.421875 L 106.703125 0 Z M 83.625 0 "/></g></g></g><g fill="#09090b" fill-opacity="1"><g transform="translate(464.447761, 205.162306)"><g><path d="M 26.71875 46.140625 L 46.71875 -8.84375 L 47.09375 7.3125 L 1.921875 -103.8125 L 29.03125 -103.8125 L 59.40625 -25.1875 L 53.25 -25.1875 L 83.4375 -103.8125 L 109.578125 -103.8125 L 50.953125 46.140625 Z M 26.71875 46.140625 "/></g></g></g><g fill="#09090b" fill-opacity="1"><g transform="translate(574.02355, 205.162306)"><g><path d="M 13.265625 0 L 13.453125 -138.421875 L 39.984375 -138.421875 L 39.984375 -53.828125 L 75.171875 -103.8125 L 107.46875 -103.8125 L 69.984375 -51.90625 L 109.96875 0 L 75.9375 0 L 39.984375 -49.984375 L 39.984375 0 Z M 13.265625 0 "/></g></g></g><g fill="#09090b" fill-opacity="1"><g transform="translate(680.139091, 205.162306)"><g><path d="M 42.296875 2.890625 C 34.859375 2.890625 28.5625 1.460938 23.40625 -1.390625 C 18.25 -4.242188 14.335938 -8.054688 11.671875 -12.828125 C 9.015625 -17.609375 7.6875 -22.878906 7.6875 -28.640625 C 7.6875 -33.453125 8.421875 -37.84375 9.890625 -41.8125 C 11.367188 -45.789062 13.757812 -49.300781 17.0625 -52.34375 C 20.363281 -55.382812 24.800781 -57.929688 30.375 -59.984375 C 34.21875 -61.390625 38.796875 -62.632812 44.109375 -63.71875 C 49.429688 -64.8125 55.457031 -65.851562 62.1875 -66.84375 C 68.914062 -67.84375 76.316406 -68.953125 84.390625 -70.171875 L 74.984375 -64.984375 C 74.984375 -71.128906 73.507812 -75.644531 70.5625 -78.53125 C 67.613281 -81.414062 62.675781 -82.859375 55.75 -82.859375 C 51.90625 -82.859375 47.898438 -81.925781 43.734375 -80.0625 C 39.566406 -78.207031 36.648438 -74.910156 34.984375 -70.171875 L 11.34375 -77.671875 C 13.96875 -86.253906 18.898438 -93.238281 26.140625 -98.625 C 33.390625 -104.007812 43.257812 -106.703125 55.75 -106.703125 C 64.914062 -106.703125 73.054688 -105.289062 80.171875 -102.46875 C 87.285156 -99.644531 92.664062 -94.773438 96.3125 -87.859375 C 98.363281 -84.015625 99.582031 -80.171875 99.96875 -76.328125 C 100.351562 -72.484375 100.546875 -68.1875 100.546875 -63.4375 L 100.546875 0 L 77.671875 0 L 77.671875 -21.34375 L 80.9375 -16.921875 C 75.875 -9.929688 70.410156 -4.878906 64.546875 -1.765625 C 58.679688 1.335938 51.265625 2.890625 42.296875 2.890625 Z M 47.875 -17.6875 C 52.675781 -17.6875 56.726562 -18.535156 60.03125 -20.234375 C 63.332031 -21.929688 65.957031 -23.867188 67.90625 -26.046875 C 69.863281 -28.222656 71.195312 -30.050781 71.90625 -31.53125 C 73.25 -34.351562 74.03125 -37.632812 74.25 -41.375 C 74.476562 -45.125 74.59375 -48.25 74.59375 -50.75 L 82.28125 -48.828125 C 74.53125 -47.546875 68.25 -46.472656 63.4375 -45.609375 C 58.632812 -44.742188 54.757812 -43.957031 51.8125 -43.25 C 48.863281 -42.550781 46.269531 -41.785156 44.03125 -40.953125 C 41.46875 -39.921875 39.398438 -38.8125 37.828125 -37.625 C 36.253906 -36.445312 35.097656 -35.148438 34.359375 -33.734375 C 33.628906 -32.328125 33.265625 -30.757812 33.265625 -29.03125 C 33.265625 -26.65625 33.851562 -24.617188 35.03125 -22.921875 C 36.21875 -21.222656 37.898438 -19.925781 40.078125 -19.03125 C 42.265625 -18.132812 44.863281 -17.6875 47.875 -17.6875 Z M 47.875 -17.6875 "/></g></g></g><g fill="#09090b" fill-opacity="1"><g transform="translate(792.214022, 205.162306)"><g><path d="M 17.6875 0 L 17.6875 -26.140625 L 43.828125 -26.140625 L 43.828125 0 Z M 17.6875 0 "/></g></g></g><g fill="#944ddb" fill-opacity="1"><g transform="translate(853.732997, 205.162306)"><g><path d="M 55.5625 2.890625 C 46.007812 2.890625 37.644531 0.488281 30.46875 -4.3125 C 23.289062 -9.125 17.695312 -15.660156 13.6875 -23.921875 C 9.6875 -32.191406 7.6875 -41.519531 7.6875 -51.90625 C 7.6875 -62.476562 9.71875 -71.878906 13.78125 -80.109375 C 17.851562 -88.347656 23.570312 -94.835938 30.9375 -99.578125 C 38.3125 -104.328125 46.96875 -106.703125 56.90625 -106.703125 C 66.769531 -106.703125 75.066406 -104.296875 81.796875 -99.484375 C 88.523438 -94.679688 93.617188 -88.144531 97.078125 -79.875 C 100.546875 -71.613281 102.28125 -62.289062 102.28125 -51.90625 C 102.28125 -41.519531 100.53125 -32.191406 97.03125 -23.921875 C 93.539062 -15.660156 88.332031 -9.125 81.40625 -4.3125 C 74.488281 0.488281 65.875 2.890625 55.5625 2.890625 Z M 59.796875 -20.375 C 65.617188 -20.375 70.273438 -21.6875 73.765625 -24.3125 C 77.265625 -26.945312 79.78125 -30.632812 81.3125 -35.375 C 82.851562 -40.113281 83.625 -45.625 83.625 -51.90625 C 83.625 -58.1875 82.851562 -63.695312 81.3125 -68.4375 C 79.78125 -73.175781 77.332031 -76.859375 73.96875 -79.484375 C 70.601562 -82.117188 66.195312 -83.4375 60.75 -83.4375 C 54.914062 -83.4375 50.125 -82.007812 46.375 -79.15625 C 42.625 -76.300781 39.851562 -72.488281 38.0625 -67.71875 C 36.269531 -62.945312 35.375 -57.675781 35.375 -51.90625 C 35.375 -46.070312 36.238281 -40.769531 37.96875 -36 C 39.695312 -31.226562 42.351562 -27.429688 45.9375 -24.609375 C 49.53125 -21.785156 54.148438 -20.375 59.796875 -20.375 Z M 83.625 0 L 83.625 -71.125 L 80.359375 -71.125 L 80.359375 -138.421875 L 106.703125 -138.421875 L 106.703125 0 Z M 83.625 0 "/></g></g></g><g fill="#944ddb" fill-opacity="1"><g transform="translate(973.881938, 205.162306)"><g><path d="M 61.71875 2.890625 C 51.070312 2.890625 41.695312 0.597656 33.59375 -3.984375 C 25.488281 -8.566406 19.144531 -14.878906 14.5625 -22.921875 C 9.976562 -30.960938 7.6875 -40.175781 7.6875 -50.5625 C 7.6875 -61.90625 9.925781 -71.773438 14.40625 -80.171875 C 18.894531 -88.566406 25.082031 -95.085938 32.96875 -99.734375 C 40.851562 -104.378906 49.921875 -106.703125 60.171875 -106.703125 C 71.066406 -106.703125 80.328125 -104.132812 87.953125 -99 C 95.578125 -93.875 101.210938 -86.664062 104.859375 -77.375 C 108.515625 -68.082031 109.800781 -57.160156 108.71875 -44.609375 L 82.859375 -44.609375 L 82.859375 -54.21875 C 82.859375 -64.789062 81.175781 -72.398438 77.8125 -77.046875 C 74.445312 -81.691406 68.953125 -84.015625 61.328125 -84.015625 C 52.421875 -84.015625 45.867188 -81.304688 41.671875 -75.890625 C 37.472656 -70.472656 35.375 -62.476562 35.375 -51.90625 C 35.375 -42.226562 37.472656 -34.742188 41.671875 -29.453125 C 45.867188 -24.171875 52.035156 -21.53125 60.171875 -21.53125 C 65.296875 -21.53125 69.6875 -22.648438 73.34375 -24.890625 C 77 -27.140625 79.785156 -30.378906 81.703125 -34.609375 L 107.859375 -27.109375 C 103.941406 -17.617188 97.769531 -10.242188 89.34375 -4.984375 C 80.914062 0.265625 71.707031 2.890625 61.71875 2.890625 Z M 27.296875 -44.609375 L 27.296875 -64.015625 L 96.125 -64.015625 L 96.125 -44.609375 Z M 27.296875 -44.609375 "/></g></g></g><g fill="#944ddb" fill-opacity="1"><g transform="translate(1090.762817, 205.162306)"><g><path d="M 41.53125 0 L 3.84375 -103.8125 L 29.984375 -103.8125 L 54.59375 -31.90625 L 79.203125 -103.8125 L 105.359375 -103.8125 L 67.671875 0 Z M 41.53125 0 "/></g></g></g></g></g></svg>